<svg fill="#cccccc" viewBox="0 0 24 24" xmlns="http://www.w3.org/2000/svg"><circle cx="4" cy="3" r="1.3"/><circle cx="4" cy="9" r="1.3"/><circle cx="4" cy="15" r="1.3"/><circle cx="4" cy="21" r="1.3"/><circle cx="12" cy="5" r="1.5"/><circle cx="12" cy="12" r="1.5"/><circle cx="12" cy="19" r="1.5"/><circle cx="20" cy="8" r="1.8"/><circle cx="20" cy="16" r="1.8"/><line x1="5.3" y1="3" x2="10.5" y2="5" stroke="#cccccc" stroke-width="0.5"/><line x1="5.3" y1="3" x2="10.5" y2="12" stroke="#cccccc" stroke-width="0.5"/><line x1="5.3" y1="9" x2="10.5" y2="5" stroke="#cccccc" stroke-width="0.5"/><line x1="5.3" y1="9" x2="10.5" y2="12" stroke="#cccccc" stroke-width="0.5"/><line x1="5.3" y1="15" x2="10.5" y2="12" stroke="#cccccc" stroke-width="0.5"/><line x1="5.3" y1="15" x2="10.5" y2="19" stroke="#cccccc" stroke-width="0.5"/><line x1="5.3" y1="21" x2="10.5" y2="19" stroke="#cccccc" stroke-width="0.5"/><line x1="13.5" y1="5" x2="18.2" y2="8" stroke="#cccccc" stroke-width="0.5"/><line x1="13.5" y1="12" x2="18.2" y2="8" stroke="#cccccc" stroke-width="0.5"/><line x1="13.5" y1="12" x2="18.2" y2="16" stroke="#cccccc" stroke-width="0.5"/><line x1="13.5" y1="19" x2="18.2" y2="16" stroke="#cccccc" stroke-width="0.5"/></svg>
